<svg xmlns="http://www.w3.org/2000/svg" width="512" height="512" viewBox="0 0 512 512" data-asset-kind="enemy">
<defs><radialGradient id="bg"><stop stop-color="#756f62"/><stop offset="1" stop-color="#080d10"/></radialGradient></defs>
<rect width="512" height="512" rx="36" fill="#080c0f"/>
<rect x="20" y="20" width="472" height="472" rx="28" fill="url(#bg)" stroke="#c7bea4" stroke-width="5"/>
<circle cx="256" cy="258" r="171" fill="#050809" fill-opacity=".46"/>
<path d="M150 414c12-99 50-144 106-144s94 45 106 144z" fill="#4d4941" stroke="#c7bea4" stroke-width="6"/>
<path d="M185 245c0-75 29-126 71-126s71 51 71 126l-28 42h-86z" fill="#8f8976" stroke="#0b1012" stroke-width="8"/>
<path d="m153 230 32 -88 34 94m108-6 32 -88-34 94" fill="none" stroke="#c7bea4" stroke-width="10" stroke-linecap="round"/>
<circle cx="226" cy="228" r="10" fill="#c7bea4"/><circle cx="286" cy="228" r="10" fill="#c7bea4"/>
<g fill="#c7bea4" opacity=".85" transform="translate(205 303) scale(.20)"><path d="M182 356 326 212l-26-26 34-72 64 64-72 34-26-26-144 144z"/><path d="m160 300 52 52-58 58-52-52z"/></g>
<path d="M72 450h368" stroke="#c7bea4" stroke-opacity=".55" stroke-width="4"/>
</svg>
