<svg xmlns="http://www.w3.org/2000/svg" width="512" height="512" viewBox="0 0 512 512" data-asset-kind="country">
<defs><radialGradient id="g"><stop stop-color="#4f673e"/><stop offset="1" stop-color="#080d10"/></radialGradient></defs>
<circle cx="256" cy="256" r="232" fill="#080c0f" stroke="#a35b67" stroke-width="9"/>
<circle cx="256" cy="256" r="202" fill="url(#g)" stroke="#a35b67" stroke-opacity=".45" stroke-width="4"/>
<g color="#a35b67" fill="#a35b67" transform="translate(52 52) scale(.8)"><path d="M108 404c134-84 44-222 250-298-64 74-11 136-94 198 54-7 91 10 124 47-85-18-111 60-204 48z"/><path d="m161 305-65-34 78-12m91-44 70-58-20 90" fill="none" stroke="currentColor" stroke-width="24"/></g>
<path d="M118 430c90-26 186-26 276 0" fill="none" stroke="#a35b67" stroke-width="8"/>
<circle cx="256" cy="52" r="13" fill="#a35b67"/>
</svg>
